<?xml version="1.0" standalone="no"?><!DOCTYPE svg PUBLIC "-//W3C//DTD SVG 1.1//EN" "http://www.w3.org/Graphics/SVG/1.1/DTD/svg11.dtd"><svg class="icon" width="200px" height="200.00px" viewBox="0 0 1024 1024" version="1.1" xmlns="http://www.w3.org/2000/svg"><path d="M732.8256 919.5008H301.4144c-103.424 0-187.5968-84.1728-187.5968-187.5968V312.32c0-103.424 84.1728-187.5968 187.5968-187.5968h246.0672c16.9472 0 30.72 13.7728 30.72 30.72s-13.7728 30.72-30.72 30.72H301.4144c-69.5296 0-126.1568 56.576-126.1568 126.1568v419.6352c0 69.5808 56.576 126.1568 126.1568 126.1568h431.4112c69.5296 0 126.1568-56.576 126.1568-126.1568V414.1568c0-16.9472 13.7728-30.72 30.72-30.72s30.72 13.7728 30.72 30.72v317.7472c0 103.4752-84.1728 187.5968-187.5968 187.5968z" fill="#707070" /><path d="M827.9552 172.6976a30.73024 30.73024 0 0 0-43.1104 5.4784l-272.2304 351.5392a30.73024 30.73024 0 0 0 5.4784 43.1104c5.5808 4.352 12.2368 6.4512 18.7904 6.4512 9.1648 0 18.2784-4.096 24.32-11.9296l272.2304-351.5392c10.3424-13.4144 7.936-32.7168-5.4784-43.1104zM662.016 682.5984H362.752c-16.9472 0-30.72 13.7728-30.72 30.72s13.7728 30.72 30.72 30.72h299.264c16.9472 0 30.72-13.7728 30.72-30.72s-13.7728-30.72-30.72-30.72z" fill="#707070" /></svg>