<?xml version="1.0" standalone="no"?><!DOCTYPE svg PUBLIC "-//W3C//DTD SVG 1.1//EN" "http://www.w3.org/Graphics/SVG/1.1/DTD/svg11.dtd"><svg class="icon" width="200px" height="200.00px" viewBox="0 0 1024 1024" version="1.1" xmlns="http://www.w3.org/2000/svg"><path d="M517.632 954.0096c-244.3776 0-443.2384-198.8096-443.2384-443.2384S273.2544 67.584 517.632 67.584s443.2384 198.8096 443.2384 443.2384c0 65.28-13.8752 128.1536-41.216 186.88-7.168 15.36-25.4464 22.0672-40.8064 14.8992-15.36-7.168-22.0672-25.4464-14.8992-40.8064 23.552-50.5856 35.4816-104.704 35.4816-160.9728 0-210.5344-171.264-381.7984-381.7984-381.7984S135.8336 300.288 135.8336 510.8224s171.264 381.7984 381.7984 381.7984c80.9984 0 158.3104-25.0368 223.6928-72.3456 13.7216-9.984 32.9216-6.8608 42.9056 6.8608a30.76096 30.76096 0 0 1-6.8608 42.9056c-75.9296 54.9376-165.7344 83.968-259.7376 83.968z" fill="#363F5B" /><path d="M726.9888 587.3664c-14.9504-7.9872-33.5872-2.304-41.5744 12.6464a189.81376 189.81376 0 0 1-167.7824 100.7616c-72.5504 0-137.728-40.3456-170.1376-105.3184-7.5776-15.1552-26.0096-21.3504-41.216-13.7728s-21.3504 26.0096-13.7728 41.216c42.8544 85.9648 129.1264 139.3152 225.1264 139.3152 93.0816 0 178.1248-51.0464 222.0032-133.2736 7.9872-14.9504 2.304-33.5872-12.6464-41.5744z" fill="#B11EFF" /><path d="M378.5216 364.6976m-47.0528 0a47.0528 47.0528 0 1 0 94.1056 0 47.0528 47.0528 0 1 0-94.1056 0Z" fill="#B11EFF" /><path d="M654.0288 364.6976m-47.0528 0a47.0528 47.0528 0 1 0 94.1056 0 47.0528 47.0528 0 1 0-94.1056 0Z" fill="#B11EFF" /></svg>