<?xml version="1.0" standalone="no"?><!DOCTYPE svg PUBLIC "-//W3C//DTD SVG 1.1//EN" "http://www.w3.org/Graphics/SVG/1.1/DTD/svg11.dtd"><svg class="icon" width="200px" height="200.00px" viewBox="0 0 1024 1024" version="1.1" xmlns="http://www.w3.org/2000/svg"><path d="M510.0032 954.0608c-244.3776 0-443.2384-198.8096-443.2384-443.2384S265.5744 67.584 510.0032 67.584s443.2384 198.8096 443.2384 443.2384c0 65.28-13.8752 128.1536-41.216 186.88-7.168 15.36-25.4464 22.0672-40.8064 14.8992-15.36-7.168-22.0672-25.4464-14.8992-40.8064 23.552-50.5344 35.4816-104.704 35.4816-160.9728 0-210.5344-171.264-381.7984-381.7984-381.7984S128.2048 300.3392 128.2048 510.8224s171.264 381.7984 381.7984 381.7984c80.9984 0 158.3104-25.0368 223.6928-72.3456 13.7216-9.984 32.9216-6.8608 42.9056 6.8608a30.76096 30.76096 0 0 1-6.8608 42.9056c-75.9296 54.9888-165.7344 84.0192-259.7376 84.0192z" fill="#707070" /><path d="M345.2928 704.8192c-8.0384 0-15.9232-3.1744-21.76-9.0624a30.7712 30.7712 0 0 1-7.2704-31.6416l83.3536-243.1488c3.072-9.0112 10.1888-16.0768 19.2-19.1488l246.0672-83.3536c11.008-3.7376 23.1936-0.9216 31.488 7.2704a30.62272 30.62272 0 0 1 7.5776 31.3856l-79.4112 242.176a30.78656 30.78656 0 0 1-19.3536 19.5584l-250.0096 84.3264c-3.2768 1.1264-6.6048 1.6384-9.8816 1.6384zM452.7616 455.168l-58.2144 169.8304 176.3328-59.4432 55.4496-169.1648-173.568 58.7776z" fill="#707070" /></svg>