<?xml version="1.0" standalone="no"?><!DOCTYPE svg PUBLIC "-//W3C//DTD SVG 1.1//EN" "http://www.w3.org/Graphics/SVG/1.1/DTD/svg11.dtd"><svg class="icon" width="200px" height="200.00px" viewBox="0 0 1024 1024" version="1.1" xmlns="http://www.w3.org/2000/svg"><path d="M516.1984 716.0832c-88.7296 0-160.9216-72.192-160.9216-160.9216S427.4176 394.24 516.1984 394.24c25.856 0 51.5584 6.2976 74.3936 18.176a30.64832 30.64832 0 0 1 13.0048 41.4208 30.64832 30.64832 0 0 1-41.4208 13.0048c-14.2848-7.424-29.696-11.2128-45.9264-11.2128-54.8352 0-99.4816 44.6464-99.4816 99.4816s44.6464 99.4816 99.4816 99.4816 99.4816-44.6464 99.4816-99.4816c0-16.9472 13.7728-30.72 30.72-30.72s30.72 13.7728 30.72 30.72c-0.0512 88.7808-72.2432 160.9728-160.9728 160.9728z" fill="#B11EFF" /><path d="M800.256 234.9056h-21.1968c-16.9472 0-30.72 13.7728-30.72 30.72s13.7728 30.72 30.72 30.72h21.1968c60.2624 0 109.2608 48.9984 109.2608 109.2608v303.6672c0 60.2624-48.9984 109.2608-109.2608 109.2608H237.2096c-60.2624 0-109.2608-48.9984-109.2608-109.2608V405.6064c0-60.2624 48.9984-109.2608 109.2608-109.2608h24.7808c24.9856 0 47.7696-12.6976 60.8768-33.9968l27.904-45.312c11.5712-18.7904 32.4096-30.4128 54.4256-30.4128h200.9088c19.968 0 39.0656 9.5232 51.0464 25.4976a30.65344 30.65344 0 0 0 43.008 6.0416 30.65344 30.65344 0 0 0 6.0416-43.008c-23.552-31.2832-60.9792-49.9712-100.1472-49.9712H405.1968c-43.2128 0-84.1216 22.8352-106.752 59.648l-27.8528 45.312c-1.8432 3.0208-5.0688 4.8128-8.5504 4.8128h-24.7808C143.1552 234.9568 66.56 311.552 66.56 405.6576v303.6672c0 94.1056 76.5952 170.7008 170.7008 170.7008H800.256c94.1056 0 170.7008-76.5952 170.7008-170.7008V405.6064c0-94.1568-76.544-170.7008-170.7008-170.7008z" fill="#363F5B" /><path d="M241.0496 366.8992c-16.9472 0-30.72 13.7728-30.72 30.72s13.7728 30.72 30.72 30.72h67.328c16.9472 0 30.72-13.7728 30.72-30.72s-13.7728-30.72-30.72-30.72H241.0496z" fill="#363F5B" /></svg>