<?xml version="1.0" standalone="no"?><!DOCTYPE svg PUBLIC "-//W3C//DTD SVG 1.1//EN" "http://www.w3.org/Graphics/SVG/1.1/DTD/svg11.dtd"><svg class="icon" width="200px" height="200.00px" viewBox="0 0 1024 1024" version="1.1" xmlns="http://www.w3.org/2000/svg"><path d="M723.456 938.0864c-16.0256 0-32.1024-3.84-46.9504-11.6736l-146.2272-76.8512a39.53152 39.53152 0 0 0-36.608 0l-146.176 76.8512c-34.2016 17.9712-74.8544 15.0528-106.0864-7.68-31.232-22.6816-46.592-60.4672-40.0896-98.5088l27.904-162.816c2.2016-12.7488-2.048-25.7536-11.3152-34.7648l-118.272-115.3024c-27.648-26.9824-37.4272-66.5088-25.4976-103.2704 11.9296-36.7104 43.1104-63.0272 81.3056-68.5568l163.4816-23.7568c12.8-1.8432 23.8592-9.8816 29.5936-21.504l73.1136-148.1216c17.1008-34.6624 51.712-56.1664 90.368-56.1664 38.6048 0 73.2672 21.504 90.3168 56.1664l73.1136 148.1216a39.23456 39.23456 0 0 0 29.5936 21.504l163.4304 23.7568c38.2464 5.5296 69.376 31.8464 81.3056 68.5568 11.9296 36.7616 2.1504 76.288-25.4976 103.2704l-27.392 26.7264a30.72 30.72 0 1 1-42.9056-43.9808l27.392-26.7264c10.9568-10.7008 14.6944-25.7536 9.9328-40.2944-4.7104-14.5408-16.5888-24.576-31.744-26.7776l-163.4304-23.7568A100.85888 100.85888 0 0 1 620.2368 317.44l-73.1136-148.1216c-6.7584-13.7216-19.968-21.9136-35.2256-21.9136-15.3088 0-28.4672 8.192-35.2256 21.9136L403.6608 317.3888a100.736 100.736 0 0 1-75.8784 55.0912L164.352 396.288c-15.1552 2.2016-26.9824 12.1856-31.744 26.7776-4.7104 14.5408-1.024 29.5936 9.9328 40.2944l118.272 115.3024a100.78208 100.78208 0 0 1 28.9792 89.1904l-27.904 162.7648c-2.6112 15.0528 3.2768 29.44 15.616 38.4512 12.3904 9.0112 27.8528 10.1376 41.3696 2.9696l146.176-76.8512a100.82304 100.82304 0 0 1 93.7472 0l146.2272 76.8512c13.5168 7.1168 29.0304 5.9904 41.3696-2.9696 12.3904-9.0112 18.2272-23.3472 15.616-38.4512l-27.904-162.7648a100.78208 100.78208 0 0 1 28.9792-89.1904 30.72 30.72 0 0 1 43.4176 0.5632 30.72 30.72 0 0 1-0.5632 43.4176 39.33696 39.33696 0 0 0-11.3152 34.7648l27.904 162.7648c6.5024 38.0928-8.8064 75.8272-40.0896 98.56a99.8912 99.8912 0 0 1-58.9824 19.3536z" fill="#707070" /><path d="M391.168 712.3968a30.73024 30.73024 0 0 1-30.5664-34.2528l8.2944-71.936c1.6384-14.1312-3.5328-28.4672-13.824-38.3488l-50.6368-48.5888a30.67392 30.67392 0 0 1-0.8704-43.4176 30.67392 30.67392 0 0 1 43.4176-0.8704l50.6368 48.5888c24.064 23.0912 36.096 56.6272 32.3072 89.7024l-8.2944 71.936a30.70464 30.70464 0 0 1-30.464 27.1872z" fill="#707070" /></svg>