<?xml version="1.0" standalone="no"?><!DOCTYPE svg PUBLIC "-//W3C//DTD SVG 1.1//EN" "http://www.w3.org/Graphics/SVG/1.1/DTD/svg11.dtd"><svg class="icon" width="200px" height="200.00px" viewBox="0 0 1024 1024" version="1.1" xmlns="http://www.w3.org/2000/svg"><path d="M769.2288 888.064H262.0928c-91.4432 0-165.8368-77.8752-165.8368-173.568V308.5312c0-95.6928 74.3936-173.568 165.8368-173.568h507.136c91.4432 0 165.8368 77.8752 165.8368 173.568v214.3744c0 16.9472-13.7728 30.72-30.72 30.72s-30.72-13.7728-30.72-30.72V308.5312c0-61.7984-46.848-112.128-104.3968-112.128H262.0928c-57.5488 0-104.3968 50.2784-104.3968 112.128v405.9648c0 61.7984 46.848 112.128 104.3968 112.128h507.136c57.5488 0 104.3968-50.2784 104.3968-112.128 0-16.9472 13.7728-30.72 30.72-30.72s30.72 13.7728 30.72 30.72c0 95.6928-74.3936 173.568-165.8368 173.568z" fill="#363F5B" /><path d="M348.16 532.736c-16.9472 0-30.72 13.7728-30.72 30.72v130.7136c0 16.9472 13.7728 30.72 30.72 30.72s30.72-13.7728 30.72-30.72v-130.7136c0-16.9472-13.7216-30.72-30.72-30.72zM515.6352 297.472c-16.9472 0-30.72 13.7728-30.72 30.72v366.0288c0 16.9472 13.7728 30.72 30.72 30.72s30.72-13.7728 30.72-30.72V328.192c0-16.9984-13.7216-30.72-30.72-30.72zM681.7792 400.384c-16.9472 0-30.72 13.7728-30.72 30.72v263.0656c0 16.9472 13.7728 30.72 30.72 30.72s30.72-13.7728 30.72-30.72V431.104c0-16.9472-13.7216-30.72-30.72-30.72z" fill="#B11EFF" /></svg>