<?xml version="1.0" standalone="no"?><!DOCTYPE svg PUBLIC "-//W3C//DTD SVG 1.1//EN" "http://www.w3.org/Graphics/SVG/1.1/DTD/svg11.dtd"><svg class="icon" width="200px" height="200.00px" viewBox="0 0 1024 1024" version="1.1" xmlns="http://www.w3.org/2000/svg"><path d="M681.1648 442.8288c-13.5168 0-25.9072-9.0112-29.6448-22.6816a168.67328 168.67328 0 0 0-122.0608-119.6032c-16.4864-4.096-26.4704-20.736-22.3744-37.2224s20.736-26.4704 37.2224-22.3744c80.9472 20.1216 144.7424 82.6368 166.5536 163.1744 4.4544 16.384-5.2736 33.2288-21.6064 37.6832-2.7136 0.6656-5.4272 1.024-8.0896 1.024z" fill="#B11EFF" /><path d="M910.4384 860.6208l-133.9392-137.728c18.8928-22.0672 35.2768-46.1312 48.7424-71.7824 7.8848-15.0016 2.1504-33.5872-12.9024-41.472a30.68416 30.68416 0 0 0-41.472 12.9024c-13.2096 25.088-29.6448 48.4352-48.9472 69.3248-61.5424 66.7648-148.9408 105.0624-239.6672 105.0624-179.712 0-325.9392-146.2272-325.9392-325.9392s146.2272-325.9392 325.9392-325.9392S808.1408 291.328 808.1408 471.04c0 16.9472 13.7728 30.72 30.72 30.72s30.72-13.7728 30.72-30.72c0-213.6064-173.7728-387.3792-387.3792-387.3792S94.8736 257.4336 94.8736 471.04s173.7728 387.3792 387.3792 387.3792c92.0064 0 181.0432-33.2288 250.624-92.2112l133.5296 137.2672a30.67392 30.67392 0 0 0 22.016 9.3184c7.7312 0 15.4624-2.8672 21.4016-8.704a30.73536 30.73536 0 0 0 0.6144-43.4688z" fill="#363F5B" /></svg>