<?xml version="1.0" standalone="no"?><!DOCTYPE svg PUBLIC "-//W3C//DTD SVG 1.1//EN" "http://www.w3.org/Graphics/SVG/1.1/DTD/svg11.dtd"><svg class="icon" width="200px" height="200.00px" viewBox="0 0 1024 1024" version="1.1" xmlns="http://www.w3.org/2000/svg"><path d="M899.9936 555.0592c16.9472 0 30.72-13.7728 30.72-30.72V286.72c0-90.5216-73.6256-164.1472-164.1472-164.1472H261.7856c-90.5216 0-164.1472 73.6256-164.1472 164.1472v449.4848c0 90.5216 73.6256 164.1472 164.1472 164.1472h504.7808c90.5216 0 164.1472-73.6256 164.1472-164.1472v-60.9792c0-16.9472-13.7728-30.72-30.72-30.72s-30.72 13.7728-30.72 30.72v60.9792c0 56.6272-46.08 102.7072-102.7072 102.7072H261.7856c-56.6272 0-102.7072-46.08-102.7072-102.7072V286.72c0-56.6272 46.08-102.7072 102.7072-102.7072h504.7808c56.6272 0 102.7072 46.08 102.7072 102.7072v237.6192c0 16.9472 13.7728 30.72 30.72 30.72z" fill="#363F5B" /><path d="M395.776 563.456h-0.1024c-18.6368 0-36.096 7.2704-49.2544 20.48l-123.904 124.672c-11.9808 12.032-11.8784 31.488 0.1536 43.4688a30.6688 30.6688 0 0 0 21.6576 8.9088c7.8848 0 15.7696-3.0208 21.8112-9.0624l123.904-124.672c1.9456-1.9456 4.1472-2.3552 5.632-2.3552 1.536 0 3.7376 0.4096 5.6832 2.3552l123.0336 124.6208a30.73024 30.73024 0 0 0 43.4688 0.256 30.73024 30.73024 0 0 0 0.256-43.4688l-123.0336-124.6208a69.34528 69.34528 0 0 0-49.3056-20.5824zM604.672 585.8304l160.2048 157.696a30.78656 30.78656 0 0 0 43.4688-0.3584c11.9296-12.0832 11.7248-31.5392-0.3584-43.4176l-160.2048-157.696c-26.112-25.7024-67.9424-26.624-95.1808-2.0992l-33.792 30.4128a30.6944 30.6944 0 0 0-2.2528 43.3664 30.6944 30.6944 0 0 0 43.3664 2.2528l33.792-30.4128c3.1232-2.816 7.936-2.7136 10.9568 0.256z" fill="#363F5B" /><path d="M360.4992 479.3856c-55.9616 0-101.4784-45.5168-101.4784-101.4784S304.5376 276.48 360.4992 276.48s101.4784 45.5168 101.4784 101.4784c-0.0512 55.9104-45.568 101.4272-101.4784 101.4272z m0-141.4656c-22.0672 0-40.0384 17.9712-40.0384 40.0384s17.9712 40.0384 40.0384 40.0384 40.0384-17.9712 40.0384-40.0384S382.5664 337.92 360.4992 337.92z" fill="#B11EFF" /></svg>