<?xml version="1.0" standalone="no"?><!DOCTYPE svg PUBLIC "-//W3C//DTD SVG 1.1//EN" "http://www.w3.org/Graphics/SVG/1.1/DTD/svg11.dtd"><svg class="icon" width="200px" height="200.00px" viewBox="0 0 1024 1024" version="1.1" xmlns="http://www.w3.org/2000/svg"><path d="M513.0752 901.9392c-17.5104 0-34.9696-6.8096-47.9744-20.2752L392.192 806.0928c-0.9728-1.024-2.3552-1.5872-3.7376-1.5872H256.512c-85.8624 0-155.7504-69.888-155.7504-155.7504V299.9808c0-85.8624 69.888-155.7504 155.7504-155.7504h510.976c85.8624 0 155.7504 69.888 155.7504 155.7504v348.7232c0 85.8624-69.888 155.7504-155.7504 155.7504-16.9472 0-30.72-13.7728-30.72-30.72s13.7728-30.72 30.72-30.72c52.0192 0 94.3104-42.2912 94.3104-94.3104V299.9808c0-52.0192-42.2912-94.3104-94.3104-94.3104H256.512c-52.0192 0-94.3104 42.2912-94.3104 94.3104v348.7744c0 52.0192 42.2912 94.3104 94.3104 94.3104h131.9424c17.9712 0 35.4816 7.424 47.9744 20.3776l72.9088 75.52c1.9456 2.048 5.2736 2.1504 7.3216 0.1536l81.5616-77.6704c12.4416-11.8784 28.7744-18.3808 45.9776-18.3808 16.9472 0 30.72 13.7728 30.72 30.72s-13.7728 30.72-30.72 30.72c-1.3312 0-2.6112 0.512-3.584 1.4336l-81.5616 77.6704a66.5088 66.5088 0 0 1-45.9776 18.3296z" fill="#363F5B" /><path d="M690.432 415.8464h-354.816c-16.9472 0-30.72-13.7728-30.72-30.72s13.7728-30.72 30.72-30.72h354.816c16.9472 0 30.72 13.7728 30.72 30.72s-13.7728 30.72-30.72 30.72zM564.736 602.4192H335.616c-16.9472 0-30.72-13.7728-30.72-30.72s13.7728-30.72 30.72-30.72h229.12c16.9472 0 30.72 13.7728 30.72 30.72s-13.7728 30.72-30.72 30.72z" fill="#B11EFF" /></svg>