<?xml version="1.0" standalone="no"?><!DOCTYPE svg PUBLIC "-//W3C//DTD SVG 1.1//EN" "http://www.w3.org/Graphics/SVG/1.1/DTD/svg11.dtd"><svg class="icon" width="200px" height="200.00px" viewBox="0 0 1024 1024" version="1.1" xmlns="http://www.w3.org/2000/svg"><path d="M515.6864 954.112c-244.3776 0-443.2384-198.8096-443.2384-443.2384 0-244.3776 198.8096-443.2384 443.2384-443.2384s443.2384 198.8096 443.2384 443.2384c0 65.28-13.8752 128.1536-41.216 186.88-7.168 15.36-25.4464 22.0672-40.8064 14.8992-15.36-7.168-22.0672-25.4464-14.8992-40.8064 23.552-50.5344 35.4816-104.704 35.4816-160.9728 0-210.5344-171.264-381.7984-381.7984-381.7984S133.888 300.3392 133.888 510.8736c0 210.5344 171.264 381.7984 381.7984 381.7984 80.9984 0 158.3616-25.0368 223.6928-72.3456 13.7216-9.984 32.9216-6.8608 42.9056 6.8608 9.9328 13.7216 6.8608 32.9216-6.8608 42.9056-75.9296 54.9376-165.7344 84.0192-259.7376 84.0192z" fill="#707070" /><path d="M512.9216 678.4c-16.9472 0-30.72-13.7728-30.72-30.72v-34.0992c0-44.4928 27.0848-85.248 67.4304-101.376 39.7824-15.9232 64.7168-55.3984 62.0544-98.304-3.0208-48.7936-43.6224-89.344-92.3648-92.3648-27.6992-1.6896-54.016 7.7312-74.1376 26.624-20.1216 18.8928-31.1808 44.544-31.1808 72.1408 0 16.9472-13.7728 30.72-30.72 30.72s-30.72-13.7728-30.72-30.72c0-44.0832 18.432-86.6816 50.5856-116.8896 32.6144-30.6176 75.264-45.9776 120.0128-43.1616 80.4864 4.9664 144.896 69.4272 149.9136 149.9136 4.3008 69.4272-36.096 133.376-100.5568 159.1296-17.2032 6.8608-28.7744 24.6784-28.7744 44.288v34.0992c-0.1024 16.9472-13.824 30.72-30.8224 30.72z" fill="#707070" /><path d="M512.1024 746.3936m-33.9968 0a33.9968 33.9968 0 1 0 67.9936 0 33.9968 33.9968 0 1 0-67.9936 0Z" fill="#707070" /></svg>